<!-- icon666.com - MILLIONS vector ICONS FREE --><svg viewBox="0 0 512 512" xmlns="http://www.w3.org/2000/svg"><path d="m437 120v-120h-362v120h-75v392h512v-392zm-262.214844 196-144.785156 144.785156v-289.570312zm21.214844 21.214844 6.96875 6.964844c14.117188 14.121093 32.953125 21.894531 53.03125 21.894531s38.914062-7.773438 53.03125-21.894531l6.96875-6.964844 144.785156 144.785156h-409.570312zm141.214844-21.214844 144.785156-144.785156v289.570312zm123.570312-166-23.785156 23.785156v-23.785156zm-53.785156-120v173.785156l-119.179688 119.183594c-8.453124 8.449219-19.753906 13.105469-31.820312 13.105469s-23.367188-4.65625-31.820312-13.105469l-119.179688-119.183594v-173.785156zm-332 143.785156-23.785156-23.785156h23.785156zm0 0"></path><path d="m241 120h30v30h-30zm0 0"></path><path d="m181 120h30v30h-30zm0 0"></path><path d="m301 120h30v30h-30zm0 0"></path></svg>