<!-- icon666.com - MILLIONS vector ICONS FREE --><svg fill="none" viewBox="0 0 24 24" xmlns="http://www.w3.org/2000/svg"><path clip-rule="evenodd" d="m2.544 5.168c.256-.36012.59424-.65396.98661-.8571s.82755-.30973 1.26939-.3109h14.4c.936 0 1.753.47 2.256 1.168.343.478.544 1.067.544 1.699v10.266c0 1.549-1.22 2.867-2.8 2.867h-14.4c-1.58 0-2.8-1.318-2.8-2.867v-10.266c0-.632.2-1.221.544-1.7zm2.389.832 6.327 6.965c.0937.1031.208.1855.3354.2419s.2653.0855.4046.0855.2772-.0291.4046-.0855.2417-.1388.3354-.2419l6.327-6.965zm15.067 1.948-5.78 6.362c-.2812.3094-.6239.5565-1.0062.7257-.3823.1691-.7958.2565-1.2138.2565s-.8315-.0874-1.2138-.2565c-.3823-.1692-.725-.4163-1.0062-.7257l-5.78-6.362v9.185c0 .514.392.867.8.867h14.4c.408 0 .8-.353.8-.867z" fill="rgb(0,0,0)" fill-rule="evenodd"></path></svg>