<!-- icon666.com - MILLIONS vector ICONS FREE --><svg version="1.1" id="Layer_1" xmlns="http://www.w3.org/2000/svg" xmlns:xlink="http://www.w3.org/1999/xlink" x="0px" y="0px" viewBox="0 0 512 512" style="enable-background:new 0 0 512 512;" xml:space="preserve"><g><g><path d="M456.348,66.783H55.652C25.067,66.783,0,91.659,0,122.435v267.13c0,30.663,24.959,55.652,55.652,55.652h400.696 c30.585,0,55.652-24.877,55.652-55.652v-267.13C512,91.777,487.009,66.783,456.348,66.783z M454.998,100.174L267.806,287.366 c-6.527,6.526-17.085,6.526-23.612,0L57.002,100.174H454.998z M478.609,388.215l-99.161-99.161c-6.519-6.52-17.091-6.52-23.611,0 c-6.52,6.52-6.52,17.091,0,23.611l99.161,99.161H57.912l92.718-88.07c6.685-6.35,6.957-16.918,0.607-23.603 s-16.917-6.956-23.603-0.607l-94.241,89.517V123.785l187.192,187.192c19.527,19.528,51.305,19.529,70.834,0l187.192-187.192 V388.215z"></path></g></g></svg>