<svg width="46" height="46" fill="currentColor" viewBox="0 0 24 24" xmlns="http://www.w3.org/2000/svg">
  <path d="M12 13a1 1 0 1 0 0-2 1 1 0 0 0 0 2Z"></path>
  <path d="M16 13a1 1 0 1 0 0-2 1 1 0 0 0 0 2Z"></path>
  <path d="M8 13a1 1 0 1 0 0-2 1 1 0 0 0 0 2Z"></path>
  <path d="M19.07 4.929a10 10 0 0 0-16.28 11c.096.198.127.422.09.64L2 20.799a1 1 0 0 0 .605 1.13 1 1 0 0 0 .395.07h.2l4.28-.86c.217-.027.438.004.64.09a10 10 0 0 0 11-16.28l-.05-.02Zm.83 8.36a8.001 8.001 0 0 1-11 6.08 3.258 3.258 0 0 0-1.25-.26 3.424 3.424 0 0 0-.56.05l-2.82.57.57-2.82a3.09 3.09 0 0 0-.21-1.81 8 8 0 1 1 15.27-1.81Z"></path>
</svg>