<!-- icon666.com - MILLIONS vector ICONS FREE --><svg version="1.1" id="Layer_1" xmlns="http://www.w3.org/2000/svg" xmlns:xlink="http://www.w3.org/1999/xlink" x="0px" y="0px" viewBox="0 0 512.001 512.001" style="enable-background:new 0 0 512.001 512.001;" xml:space="preserve"><g><g><path d="M431.396,293.766l-0.716-0.852c-22.664-24.113-35.061-55.617-35.061-88.709v-10.17 c0-59.015-37.303-109.474-89.526-129.048V48.171C306.093,21.609,284.161,0,257.599,0s-48.493,21.609-48.493,48.171v16.817 c-52.224,19.574-89.526,70.033-89.526,129.048v7.885c0,34.404-13.083,66.802-37.313,91.225 C63.548,312.013,53.5,337.041,53.5,363.619v31.767c0,27.323,22.132,49.471,49.455,49.471h86.966v8.175 c0,32.749,27.009,58.97,59.757,58.97h22.539c32.749,0,59.454-26.223,59.454-58.97v-8.175h77.374 c27.323,0,49.455-22.148,49.455-49.471v-33.086C458.501,336.733,448.907,312.396,431.396,293.766z M241.079,48.171 c0-8.931,7.588-16.197,16.52-16.197c8.931,0,16.52,7.266,16.52,16.197v9.075c-5.329-0.626-11.041-0.957-16.52-0.957 c-5.479,0-11.191,0.331-16.52,0.957V48.171z M104.916,315.663c30.212-30.453,46.637-70.847,46.637-113.744v-7.884h0 c0-58.323,47.723-105.773,106.046-105.773c58.323,0,106.046,47.45,106.046,105.773v10.17c0,41.261,15.503,80.542,43.762,110.609 l0.771,0.852c7.791,8.29,13.245,18.245,16.12,29.004H88.052C91.176,333.833,96.759,323.886,104.916,315.663z M272.219,480.026 h-22.539c-13.51,0-24.768-9.592-27.011-22.382h76.561C296.987,470.434,285.727,480.026,272.219,480.026z M426.527,395.385 c0,9.692-7.789,17.497-17.481,17.497H102.955v0c-9.692,0-17.481-7.805-17.481-17.497v-18.74h341.053V395.385z"></path></g></g></svg>